<svg width="24" height="18" viewBox="0 0 24 18" fill="none" xmlns="http://www.w3.org/2000/svg">
<path d="M19.4932 4.50676C20.9069 3.09312 21.6137 2.3863 22.2205 2.33854C22.7471 2.2971 23.2617 2.51024 23.6047 2.91186C24 3.37474 24 4.37433 24 6.37352V15.36C24 16.2841 24 16.7461 23.8202 17.0991C23.662 17.4096 23.4096 17.662 23.0991 17.8202C22.7461 18 22.2841 18 21.36 18H12.3735C10.3743 18 9.37473 18 8.91186 17.6047C8.51024 17.2616 8.2971 16.7471 8.33854 16.2205C8.3863 15.6137 9.09312 14.9069 10.5068 13.4932L19.4932 4.50676Z" fill="#1E2226"/>
<path d="M4.50676 15.5182C3.09312 16.9319 2.3863 17.6387 1.77946 17.6865C1.25291 17.7279 0.738351 17.5148 0.39533 17.1131C0 16.6503 0 15.6507 0 13.6515V12.915C0 11.9909 0 11.5289 0.179839 11.1759C0.33803 10.8654 0.590448 10.613 0.900916 10.4548C1.25387 10.275 1.71591 10.275 2.64 10.275H3.37648C5.37567 10.275 6.37526 10.275 6.83814 10.6703C7.23976 11.0134 7.4529 11.5279 7.41146 12.0545C7.3637 12.6613 6.65688 13.3681 5.24324 14.7818L4.50676 15.5182Z" fill="#1E2226"/>
<path d="M5.99027e-07 2.64C5.99027e-07 1.71591 5.90086e-07 1.25387 0.17984 0.900916C0.338031 0.590448 0.590449 0.33803 0.900916 0.179839C1.25387 0 1.71591 0 2.64 0H13.6502C15.6538 0 16.6556 0 17.1186 0.39591C17.5204 0.73942 17.7333 1.25462 17.6911 1.78153C17.6426 2.38882 16.9329 3.09592 15.5136 4.51012L13.3609 6.65512C13.0757 6.93927 12.9331 7.08135 12.7668 7.18294C12.6194 7.27302 12.4588 7.33938 12.2908 7.37962C12.1013 7.425 11.9 7.425 11.4975 7.425L2.64 7.425C1.71591 7.425 1.25387 7.425 0.900916 7.24516C0.590449 7.08697 0.338031 6.83455 0.17984 6.52408C6.07967e-07 6.17113 5.99027e-07 5.70909 5.99027e-07 4.785V2.64Z" fill="#1E2226"/>
</svg>
