<svg xmlns="http://www.w3.org/2000/svg" width="160" height="120" viewBox="0 0 160 120" fill="none">
  <path d="M 129.955 30.045 C 139.379 20.621 144.091 15.909 148.137 15.59 C 151.647 15.314 155.078 16.735 157.364 19.412 C 160 22.498 160 29.162 160 42.49 L 160 102.4 C 160 108.561 160 111.641 158.801 113.994 C 157.746 116.064 156.064 117.746 153.994 118.801 C 151.641 120 148.561 120 142.4 120 L 82.49 120 C 69.162 120 62.498 120 59.412 117.364 C 56.735 115.078 55.314 111.647 55.59 108.137 C 55.909 104.091 60.621 99.379 70.045 89.955 L 129.955 30.045 Z" fill="currentColor" fill-rule="nonzero"/>
  <path d="M 30.045 103.455 C 20.621 112.879 15.909 117.591 11.863 117.91 C 8.353 118.186 4.922 116.765 2.636 114.088 C 0 111.002 0 104.338 0 91.01 L 0 86.1 C 0 79.939 0 76.859 1.199 74.506 C 2.254 72.436 3.936 70.754 6.006 69.699 C 8.359 68.5 11.439 68.5 17.6 68.5 L 22.51 68.5 C 35.838 68.5 42.502 68.5 45.588 71.136 C 48.265 73.422 49.686 76.853 49.41 80.363 C 49.091 84.409 44.379 89.121 34.955 98.545 L 30.045 103.455 Z" fill="currentColor" fill-rule="nonzero"/>
  <path d="M 0 17.6 C 0 11.439 0 8.359 1.199 6.006 C 2.254 3.936 3.936 2.254 6.006 1.199 C 8.359 0 11.439 0 17.6 0 L 91.001 0 C 104.359 0 111.037 0 114.124 2.639 C 116.803 4.929 118.222 8.364 117.941 11.877 C 117.617 15.925 112.886 20.639 103.424 30.067 L 89.072 44.367 C 87.171 46.262 86.221 47.209 85.112 47.886 C 84.13 48.487 83.059 48.929 81.939 49.197 C 80.675 49.5 79.334 49.5 76.65 49.5 L 17.6 49.5 C 11.439 49.5 8.359 49.5 6.006 48.301 C 3.936 47.246 2.254 45.564 1.199 43.494 C 0 41.141 0 38.061 0 31.9 L 0 17.6 Z" fill="currentColor" fill-rule="nonzero"/>
</svg>
